<?xml version="1.0" encoding="UTF-8"?>
<svg id="Warstwa_1" data-name="Warstwa 1" xmlns="http://www.w3.org/2000/svg" viewBox="0 0 145.02 139.71">
  <defs>
    <style>
      .cls-1 {
        fill: #1c1819;
      }

      .cls-2 {
        fill: #92140c;
      }

      .cls-3 {
        fill: #f0eff4;
      }

      .cls-4 {
        fill: none;
        stroke: #92140c;
        stroke-linecap: round;
        stroke-linejoin: round;
        stroke-width: 9.5px;
      }
    </style>
  </defs>
  <g>
    <path class="cls-3" d="M145.02,76.52v39.28c0,5.17-4.16,9.34-9.34,9.34h-5.14c-4.03,0-7.3-3.27-7.3-7.21h-13.12c-.38,1.9-1.2,3.65-2.41,5.24l-5.91,7.27-.02.02c-3.65,4.39-9.55,5.82-14.55,3.85-3.05,3.72-6.9,5.4-10.99,5.4-3.43,0-6.54-1.14-9.34-3.58-3.85,2.64-8.41,3.82-12.91,3.49-.13-.01-.26-.02-.38-.04V52.71h44.23c1.36,0,2.69.22,3.94.62,1.9.62,3.63,1.68,5.1,3.09l10.76,10.77h18.04c5.18,0,9.34,4.19,9.34,9.33Z"/>
    <path class="cls-2" d="M57.95,79.63c-2.19,1.97-2.35,5.47-.22,7.66,1.97,2.19,5.68,1.97,7.81,0l12.51-11.44c1.43-1.3,3.72-1.23,5.08.23l2.51,2.64c1.36,1.45,1.21,3.8-.23,5.17l-2.82,2.57,19.19,15.62v28.38c-3.65,4.39-9.55,5.82-14.55,3.85-3.05,3.72-6.9,5.4-10.99,5.4-3.43,0-6.54-1.14-9.34-3.58-3.85,2.64-8.41,3.82-12.91,3.49-.13-.01-.26-.02-.38-.04-3.79-.35-7.52-1.8-10.68-4.35l-11.52-10.41-7.59-6.89h-2.04c-.09,3.94-3.27,7.21-7.27,7.21h-5.17c-5.15,0-9.34-4.17-9.34-9.34v-39.28c0-5.14,4.19-9.33,9.34-9.33h17.43l10.79-10.77c2.35-2.35,5.6-3.71,8.93-3.71h51.35c1.36,0,2.69.22,3.94.62v13.4l-2.65-2.65c-.31-.29-.76-.45-1.2-.45h-18.96c-2.28,0-4.48.83-6.16,2.42l-14.86,13.58Z"/>
    <g id="SVGRepo_iconCarrier" data-name="SVGRepo iconCarrier">
      <path class="cls-1" d="M135.68,67.19h-18.04l-10.76-10.77c-1.47-1.41-3.2-2.47-5.1-3.09-1.25-.4-2.58-.62-3.94-.62h-51.35c-3.33,0-6.58,1.36-8.93,3.71l-10.79,10.77H9.34c-5.15,0-9.34,4.19-9.34,9.33v39.28c0,5.17,4.19,9.34,9.34,9.34h5.17c4,0,7.18-3.27,7.27-7.21h2.04l7.59,6.89,11.52,10.41c3.16,2.55,6.89,4,10.68,4.35.12.02.25.03.38.04,4.5.33,9.06-.85,12.91-3.49,2.8,2.44,5.91,3.58,9.34,3.58,4.09,0,7.94-1.68,10.99-5.4,5,1.97,10.9.54,14.55-3.85l.02-.02,5.91-7.27c1.21-1.59,2.03-3.34,2.41-5.24h13.12c0,3.94,3.27,7.21,7.3,7.21h5.14c5.18,0,9.34-4.17,9.34-9.34v-39.28c0-5.14-4.16-9.33-9.34-9.33ZM10.93,117.86c-2.04,0-3.63-1.59-3.63-3.58s1.59-3.62,3.63-3.62,3.58,1.59,3.58,3.62-1.61,3.58-3.58,3.58ZM99.2,116.34l-5.91,7.28c-.6.76-1.74.91-2.57.22l-5.4-4.32-6.82,8.19c-1.28,1.68-3.34,1.14-4.01.61l-8.35-7.12-3.56,4.32c-2.12,2.66-5.5,3.78-8.59,3.22-.13-.02-.25-.05-.38-.08-1.27-.28-2.5-.84-3.54-1.71l-18.06-16.29-.6-.54-3.34-3.02h-6.29v-29.05h9.47l13.97-13.97c.44-.14.82-.29,1.27-.52h12.89l-5.39,4.93-.38.35-3.02,2.76c-6.67,6.13-7.05,16.38-.99,22.96.88.96,2.26,2.08,4.01,3.02.12.08.25.14.38.21,4.81,2.53,12.06,3.76,18.6-2.22l1.9-1.68,20.62,16.77,3.87,3.11c.76.6.83,1.74.22,2.57ZM123.24,107.1h-15.69c-.54-.7-1.14-1.23-1.75-1.75l-4.02-3.27-19.19-15.62,2.82-2.57c1.44-1.37,1.59-3.72.23-5.17l-2.51-2.64c-1.36-1.46-3.65-1.53-5.08-.23l-12.51,11.44c-2.13,1.97-5.84,2.19-7.81,0-2.13-2.19-1.97-5.69.22-7.66l14.86-13.58c1.68-1.59,3.88-2.42,6.16-2.42h18.96c.44,0,.89.16,1.2.45l2.65,2.65,8.5,8.5,2.8,2.82h10.16v29.05ZM134.1,117.86c-1.97,0-3.56-1.59-3.56-3.58s1.59-3.62,3.56-3.62,3.64,1.59,3.64,3.62-1.67,3.58-3.64,3.58Z"/>
    </g>
  </g>
  <g id="SVGRepo_iconCarrier-2" data-name="SVGRepo iconCarrier">
    <path class="cls-4" d="M45.56,40.32v-10.26c0-13.96,11.32-25.31,25.28-25.31s25.28,11.36,25.28,25.31v10.26"/>
  </g>
</svg>